# xmcd CD database file
#
# Track frame offsets:
#	150
#	12804
#	38439
#	52470
#	70881
#	82835
#	97745
#	113826
#	132348
#	142265
#	162652
#	180085
#
# Disc length: 2577 seconds
#
# Revision: 4
# Processed by: cddbd v1.5.2PL0 Copyright (c) Steve Scherf et al.
# Submitted via: CDex 1.51
#
DISCID=990a0f0c
DTITLE=Gosa and Gympleri - Prevazne country
DYEAR=2008
DGENRE=Country
TTITLE0=Tennessee Zuzana
TTITLE1=Nocni jezdec
TTITLE2=Skoda Mraz
TTITLE3=Tulak
TTITLE4=Mam rad
TTITLE5=Musher
TTITLE6=Kovboj
TTITLE7=Uhliky
TTITLE8=Cikansky hrich
TTITLE9=Konecne nebudu furt doma!
TTITLE10=Rancherska ukolebavka
TTITLE11=Kanada
EXTD=YEAR: 2008
EXTT0=
EXTT1=
EXTT2=
EXTT3=
EXTT4=
EXTT5=
EXTT6=
EXTT7=
EXTT8=
EXTT9=
EXTT10=
EXTT11=
PLAYORDER=
